# xmcd CD database file
#
# Track frame offsets:
#	150
#	36301
#	71927
#	114754
#	167781
#	226358
#	236633
#	273234
#
# Disc length: 4124 seconds
#
# Revision: 0
# Processed by: cddbd v1.5.1PL0 Copyright (c) Steve Scherf et al.
# Submitted via: CDex 1.60beta1
#
DISCID=6a101a08
DTITLE=Various Artist - BOYCOTT RHYTHM MACHINE
DYEAR=2004
DGENRE=Jazz
TTITLE0=渋さ知らズ_THEME OF INUHIME
TTITLE1=外山明・大儀見元Duo_2004.3.17.FINE
TTITLE2=DATE COURSE PENTAGON ROYAL GARDEN_構造
TTITLE3=Otomo Yoshihide's NEW JAZZ ORCHESTRA_Song for Che〜Redusing Agent
TTITLE4=VINCENT ATMICUS_飛行機凧とメリーゴーランド
TTITLE5=水谷浩章・菊地雅晃Duo_相対的近似レオーネ
TTITLE6=ROVO_FUMO
TTITLE7=Hiroshi Minami Trio_Praise Song
EXTD=YEAR: 2004
EXTT0=
EXTT1=
EXTT2=
EXTT3=
EXTT4=
EXTT5=
EXTT6=
EXTT7=
PLAYORDER=
